<svg width="42" height="41" viewBox="0 0 42 41" fill="none" xmlns="http://www.w3.org/2000/svg">
<path d="M25.0003 22.4C31.1859 22.4 36.2003 17.3856 36.2003 11.2C36.2003 5.01441 31.1859 0 25.0003 0C18.8147 0 13.8003 5.01441 13.8003 11.2C13.8003 17.3856 18.8147 22.4 25.0003 22.4Z" fill="#627EEA"/>
<path d="M25.349 2.80005V9.00898L30.597 11.354L25.349 2.80005Z" fill="white" fill-opacity="0.602"/>
<path d="M25.3488 2.80029L20.1001 11.3543L25.3488 9.00922V2.80029Z" fill="white"/>
<path d="M25.349 15.3775V19.5963L30.6003 12.3311L25.349 15.3775Z" fill="white" fill-opacity="0.602"/>
<path d="M25.3491 19.5963V15.3768L20.1003 12.3311L25.3491 19.5963Z" fill="white"/>
<path d="M25.349 14.401L30.597 11.3538L25.349 9.01025V14.401Z" fill="white" fill-opacity="0.2"/>
<path d="M20.1006 11.3541L25.3493 14.4013V9.0105L20.1006 11.3541Z" fill="white" fill-opacity="0.602"/>
<path d="M0.85083 20.1055C2.41277 13.8361 8.76188 10.0209 15.0295 11.584C21.2984 13.1472 25.1127 19.4972 23.55 25.7656C21.9872 32.0342 15.6376 35.8492 9.36841 34.2861C3.10205 32.723 -0.712474 26.3737 0.85083 20.1055Z" fill="#F7931A" stroke="white"/>
<path d="M17.1388 21.3391C17.3614 19.8486 16.2268 19.0475 14.6749 18.5128L15.1782 16.4937L13.9487 16.1873L13.4586 18.1533C13.1358 18.0727 12.8041 17.9967 12.4742 17.9215L12.9678 15.9426L11.7395 15.6362L11.2358 17.6547C10.9683 17.5937 10.7058 17.5334 10.4511 17.4703L10.4526 17.4638L8.75764 17.0405L8.43057 18.353C8.43057 18.353 9.34223 18.562 9.32333 18.5749C9.82125 18.699 9.91149 19.0286 9.8958 19.2897L9.32083 21.5984L8.51689 24.8206C8.4559 24.9719 8.30146 25.1987 7.9537 25.1127C7.96582 25.1306 7.06023 24.8898 7.06023 24.8898L6.44995 26.2969L8.04964 26.6957C8.34711 26.7702 8.63887 26.8483 8.92528 26.9218L8.41666 28.9641L9.64434 29.2705L10.1483 27.2499C10.4832 27.3409 10.8089 27.4251 11.1274 27.5039L10.6256 29.5148L11.8547 29.8212L12.3633 27.7828C14.4587 28.1794 16.0353 28.0193 16.6976 26.1243C17.2323 24.5981 16.6712 23.7178 15.5687 23.1435C16.3723 22.9584 16.9772 22.4302 17.1388 21.3391ZM14.3307 25.2768C13.9505 26.803 11.3814 25.9784 10.5478 25.7712L11.2226 23.0658C12.0558 23.2734 14.727 23.6853 14.3307 25.2768ZM14.7106 21.317C14.3639 22.7052 12.2252 22 11.5312 21.827L12.1429 19.3735C12.8369 19.5465 15.0715 19.8689 14.7106 21.317Z" fill="white"/>
<path d="M29.8004 17.1001C36.2621 17.1002 41.5006 22.3386 41.5006 28.8003C41.5005 35.2619 36.262 40.5004 29.8004 40.5005C23.3387 40.5005 18.1003 35.2619 18.1002 28.8003C18.1002 22.3386 23.3387 17.1001 29.8004 17.1001Z" fill="url(#paint0_linear_166_7559)" stroke="white"/>
<path d="M24.4951 32.042C24.59 31.9471 24.7205 31.8918 24.8585 31.8918H37.4002C37.6295 31.8918 37.744 32.1682 37.5821 32.3305L35.1045 34.8081C35.0096 34.903 34.8791 34.9583 34.7411 34.9583H22.1997C21.9704 34.9583 21.8559 34.6815 22.0178 34.5196L24.4951 32.042Z" fill="white"/>
<path d="M24.4951 22.792C24.5939 22.6971 24.7244 22.6418 24.8585 22.6418H37.4002C37.6295 22.6418 37.744 22.9186 37.5821 23.0805L35.1045 25.5581C35.0096 25.653 34.8791 25.7083 34.7411 25.7083H22.1997C21.9704 25.7083 21.8559 25.4319 22.0178 25.2696L24.4951 22.792Z" fill="white"/>
<path d="M35.1045 27.3872C35.0096 27.2923 34.8791 27.2371 34.7411 27.2371H22.1997C21.9704 27.2371 21.8559 27.5138 22.0178 27.6757L24.4954 30.1533C24.5903 30.2482 24.7208 30.3035 24.8589 30.3035H37.4006C37.6299 30.3035 37.7444 30.0267 37.5824 29.8648L35.1045 27.3872Z" fill="white"/>
<defs>
<linearGradient id="paint0_linear_166_7559" x1="39.6173" y1="18.7892" x2="21.4096" y2="37.3563" gradientUnits="userSpaceOnUse">
<stop stop-color="#00FFA3"/>
<stop offset="1" stop-color="#DC1FFF"/>
</linearGradient>
</defs>
</svg>
