<svg width="54" height="63" viewBox="0 0 54 63" fill="none" xmlns="http://www.w3.org/2000/svg">
<path d="M2.32812 21.8223C2.32812 21.8223 2.3618 50.3773 3.01131 51.4343C3.66081 52.4914 26.9997 63.226 27.8465 62.9702L27.7021 32.4218L2.32812 21.8223Z" fill="#47845A"/>
<path d="M11.1748 55.7317C11.1748 55.7317 13.2292 58.8353 17.7709 58.8353V30.0245L11.1748 27.0078V55.7366V55.7317Z" fill="#FFAE1F"/>
<g opacity="0.2" style="mix-blend-mode:multiply">
<path d="M17.7768 34.8309V30.0187L11.1807 27.002V32.9437C13.3601 33.658 15.554 34.3048 17.7768 34.8309Z" fill="#FFAE1F"/>
</g>
<path d="M27.4638 32.5459L27.8439 62.9785C27.8439 62.9785 50.4996 51.9542 50.7161 50.791C50.9326 49.6229 51.5292 20.6914 51.5292 20.6914L27.459 32.5507L27.4638 32.5459Z" fill="#3D7D51"/>
<path d="M38.1264 57.8609C38.1264 57.8609 42.1101 57.3975 44.0971 54.7766L44.7851 26.2168L38.0254 28.2826L38.1264 57.8609Z" fill="#EF9926"/>
<g opacity="0.17" style="mix-blend-mode:multiply">
<path d="M44.5878 34.4464L44.7851 26.2168L38.0254 28.2826L38.0543 36.8163C40.253 36.0827 42.4372 35.3055 44.5878 34.4512V34.4464Z" fill="#EF9926"/>
</g>
<g opacity="0.18" style="mix-blend-mode:multiply">
<path d="M21.6987 6.68647C21.665 6.79748 21.6361 6.9085 21.6072 7.02434C21.3715 7.98486 21.4052 8.8585 21.4581 9.77558C21.3859 10.1569 21.4148 10.5479 21.5158 10.9388C21.5255 11.074 21.5639 11.1802 21.6217 11.267C22.5406 13.6997 26.2452 16.0552 27.448 16.5185C27.6837 16.6585 27.9339 16.7792 28.1889 16.895C28.136 16.9481 28.0879 16.9916 28.0301 17.0157C26.0046 17.9086 15.7617 10.4175 21.689 6.68164L21.6987 6.68647Z" fill="#FFBB24"/>
</g>
<path opacity="0.45" d="M12.4913 47.9194C12.5009 49.1357 12.5153 50.3521 12.5249 51.5684C12.5346 52.5 13.9779 52.5 13.9683 51.5684C13.9587 50.3521 13.9442 49.1357 13.9346 47.9194C13.925 46.9878 12.4816 46.9878 12.4913 47.9194Z" fill="#FFC91F"/>
<path opacity="0.45" d="M12.4961 39.4643C12.5154 41.4529 12.5346 43.4464 12.5491 45.435C12.5587 46.3665 14.002 46.3665 13.9924 45.435C13.9732 43.4464 13.9539 41.4529 13.9395 39.4643C13.9299 38.5327 12.4865 38.5327 12.4961 39.4643Z" fill="#FFC91F"/>
<path opacity="0.51" d="M42.0838 36.8452C42.0165 39.7122 41.9876 42.5841 42.0068 45.4561C42.0116 46.3876 43.455 46.3876 43.4502 45.4561C43.4309 42.5841 43.4598 39.7171 43.5272 36.8452C43.5512 35.9136 42.1079 35.9136 42.0838 36.8452Z" fill="#FFAE1F"/>
<path opacity="0.51" d="M42.0433 48.1913C41.9423 49.4559 41.9711 50.7157 42.1299 51.9755C42.2454 52.8877 43.6887 52.8974 43.5733 51.9755C43.4145 50.7157 43.3856 49.4607 43.4867 48.1913C43.5636 47.2646 42.1203 47.2694 42.0433 48.1913Z" fill="#FFAE1F"/>
<path d="M0.0706864 17.8066C0.0706864 17.8066 -0.121758 24.2793 0.128422 25.1481C0.378602 26.0169 28.3362 37.5818 28.9472 37.8183C28.9472 37.8183 28.7692 29.97 28.7596 29.6611C28.7452 29.2846 0.0706864 17.8066 0.0706864 17.8066Z" fill="#3D7D51"/>
<path d="M28.7617 29.6621L28.9494 37.8193C28.9494 37.8193 52.8608 28.0741 53.212 26.9012C53.3852 26.3172 53.924 18.9564 53.0292 18.9805L28.7617 29.6621Z" fill="#357248"/>
<path d="M28.7602 29.6584L53.0277 18.9768C53.0277 18.9768 27.5526 9.1254 26.3354 9.15436C25.1374 9.18332 0.0712891 17.8087 0.0712891 17.8087L28.7602 29.6632V29.6584Z" fill="#47845A"/>
<path d="M11.9922 13.7484L40.0605 24.6858L40.5897 32.9492C40.5897 32.9492 44.2991 33.345 46.1802 30.5117L45.7039 22.2001L17.4047 11.9336C17.4047 11.9336 13.4452 11.9626 11.9922 13.7484Z" fill="#FFAE1F"/>
<path d="M35.2649 12.2325C35.2649 12.2325 39.2437 12.1794 41.2066 14.4625L16.7179 24.6903L16.6072 32.6641C16.6072 32.6641 11.1754 32.0656 9.57812 29.6667L9.785 21.8281L35.2601 12.2374L35.2649 12.2325Z" fill="#FFC91F"/>
<path d="M45.1504 2.90276C34.9845 -7.97671 25.7471 15.5295 27.9746 17.8077C31.0056 20.9113 55.9082 14.4097 45.1504 2.90276ZM28.653 17.2237C28.2537 16.6831 36.5529 -3.54094 42.9854 4.93965C50.486 14.8345 29.2784 18.0732 28.653 17.2237Z" fill="#FFE424"/>
<g opacity="0.18" style="mix-blend-mode:multiply">
<path d="M46.2416 4.22461C46.2175 4.44181 46.1935 4.65902 46.1646 4.87622C45.9096 6.72003 45.236 8.22115 44.5047 9.78019C44.3652 10.4994 44.0429 11.1606 43.5906 11.7688C43.48 11.9957 43.3356 12.1549 43.1721 12.2708C39.8716 15.8715 31.76 17.3823 29.3352 17.3485C28.8252 17.4257 28.3056 17.4644 27.7764 17.4837C27.8245 17.614 27.8918 17.725 27.9688 17.8071C30.8844 20.79 53.9875 14.9014 46.2368 4.22461H46.2416Z" fill="#FFBB24"/>
</g>
<path d="M28.0454 17.0188C29.5946 16.3334 29.6716 2.90062 22.5077 6.25037C14.9302 9.79803 25.9381 17.9504 28.0454 17.0188ZM23.1717 7.68392C28.0165 4.77339 28.1272 16.4058 27.8241 16.5941C27.3478 16.8885 17.5186 11.0771 23.1717 7.68392Z" fill="#FFE424"/>
<path d="M28.1262 17.7648C30.3538 15.4865 21.1164 -8.01968 10.9504 2.85979C0.192673 14.3667 25.0952 20.8684 28.1262 17.7648ZM13.1154 4.89668C19.5431 -3.5839 27.8472 16.6401 27.4479 17.1807C26.8224 18.0302 5.61484 14.7915 13.1154 4.89668Z" fill="#FFE424"/>
<g opacity="0.18" style="mix-blend-mode:multiply">
<path d="M9.85801 4.18164C9.88206 4.39884 9.90612 4.61605 9.93499 4.83325C10.19 6.67707 10.8635 8.17818 11.5948 9.73722C11.7344 10.4564 12.0567 11.1177 12.509 11.7258C12.6196 11.9527 12.7639 12.112 12.9275 12.2278C16.228 15.8286 24.3396 17.3393 26.7644 17.3055C27.2744 17.3828 27.794 17.4214 28.3232 17.4407C28.2751 17.571 28.2077 17.682 28.1308 17.7641C25.2152 20.747 2.11205 14.8584 9.86282 4.18164H9.85801Z" fill="#FFBB24"/>
</g>
<path d="M34.4201 11.0839C30.0708 7.48795 27.7277 16.7794 28.6755 17.5276C29.9649 18.546 39.0195 14.8922 34.4201 11.0839ZM28.9065 17.2766C28.7285 17.0932 30.8742 9.08077 33.7032 11.9575C37.0036 15.3169 29.1807 17.5662 28.9065 17.2766Z" fill="#FFE424"/>
<g opacity="0.18" style="mix-blend-mode:multiply">
<path d="M34.8914 11.5322C34.8914 11.6142 34.8914 11.6963 34.8914 11.7832C34.8818 12.4879 34.7038 13.0864 34.5065 13.709C34.4873 13.9842 34.4007 14.2496 34.2563 14.5006C34.2275 14.5923 34.1794 14.6599 34.1216 14.7082C33.0535 16.2238 30.0754 17.1891 29.1613 17.2905C28.9737 17.3436 28.7812 17.3822 28.584 17.416C28.608 17.4642 28.6369 17.5028 28.6706 17.527C29.9119 18.5068 38.3218 15.1667 34.8866 11.5273L34.8914 11.5322Z" fill="#FFBB24"/>
</g>
<path opacity="0.48" d="M13.9774 22.5126C15.7864 21.6341 17.6579 20.9343 19.592 20.3937C20.4869 20.1475 20.1068 18.7478 19.2071 18.9987C17.1479 19.5683 15.1657 20.3309 13.2461 21.2625C12.4089 21.6679 13.1402 22.9181 13.9726 22.5126H13.9774Z" fill="#FFE424"/>
<path opacity="0.48" d="M11.2401 24.2594C11.1632 25.2875 11.091 26.3156 11.014 27.3436C10.9466 28.2752 12.39 28.2704 12.4574 27.3436C12.5343 26.3156 12.6065 25.2875 12.6835 24.2594C12.7508 23.3278 11.3075 23.3326 11.2401 24.2594Z" fill="#FFE424"/>
<path opacity="0.45" d="M35.5159 20.9667C37.681 21.6956 39.846 22.4196 42.0062 23.1484C42.8866 23.4429 43.2667 22.0479 42.3911 21.7535C40.2261 21.0247 38.061 20.3007 35.9008 19.5718C35.0204 19.2774 34.6403 20.6723 35.5159 20.9667Z" fill="#FFC91F"/>
<path opacity="0.45" d="M43.3249 24.3237C43.3489 25.3518 43.3297 26.375 43.2719 27.4031C43.219 28.3347 44.6624 28.3299 44.7153 27.4031C44.773 26.3799 44.7923 25.3518 44.7682 24.3237C44.749 23.3921 43.3056 23.3921 43.3249 24.3237Z" fill="#FFC91F"/>
<path d="M5.22259 18.6312C7.10375 18.0617 8.97047 17.4342 10.8131 16.7536C11.6792 16.4351 11.3039 15.0353 10.4283 15.3587C8.58077 16.0393 6.71886 16.6619 4.83769 17.2363C3.95244 17.5066 4.32771 18.9015 5.22259 18.6312Z" fill="#3D7D51"/>
<path d="M3.59307 29.8745C3.48242 33.3159 3.47761 36.7526 3.56902 40.194C3.59307 41.1256 5.03642 41.1256 5.01236 40.194C4.92095 36.7526 4.92576 33.3159 5.03642 29.8745C5.06528 28.9429 3.62194 28.9429 3.59307 29.8745Z" fill="#3D7D51"/>
<path d="M3.66774 42.601C3.62925 43.7691 3.62444 44.9323 3.64849 46.1004C3.66774 47.032 5.11108 47.032 5.09184 46.1004C5.06778 44.9323 5.07741 43.7691 5.11108 42.601C5.13995 41.6695 3.6966 41.6695 3.66774 42.601Z" fill="#3D7D51"/>
</svg>
