<svg width="76" height="82" viewBox="0 0 76 82" fill="none" xmlns="http://www.w3.org/2000/svg">
<g filter="url(#filter0_i_9229_13807)">
<rect width="76" height="56" rx="28" fill="#E2F1E3"/>
</g>
<path d="M49.3627 24.2909C49.2297 24.1262 49.0614 23.9933 48.8703 23.9022C48.6791 23.8111 48.47 23.7641 48.2582 23.7645H46.053C45.8914 23.7645 45.7364 23.8287 45.6221 23.943C45.5078 24.0573 45.4436 24.2123 45.4436 24.3739C45.4436 24.5355 45.5078 24.6905 45.6221 24.8048C45.7364 24.919 45.8914 24.9832 46.053 24.9832H48.2582C48.2884 24.9832 48.3183 24.99 48.3456 25.003C48.3729 25.016 48.3969 25.0349 48.416 25.0584C48.435 25.0819 48.4486 25.1093 48.4557 25.1387C48.4628 25.168 48.4632 25.1986 48.457 25.2282L47.026 32.0006C46.9673 32.2736 46.817 32.5182 46.6001 32.6941C46.3833 32.8699 46.1128 32.9663 45.8336 32.9672H34.4959C34.2249 32.9674 33.9615 32.8771 33.7476 32.7107C33.5336 32.5443 33.3813 32.3113 33.3146 32.0486L31.52 24.9832H34.2718C34.4334 24.9832 34.5884 24.919 34.7027 24.8048C34.8169 24.6905 34.8811 24.5355 34.8811 24.3739C34.8811 24.2123 34.8169 24.0573 34.7027 23.943C34.5884 23.8287 34.4334 23.7645 34.2718 23.7645H31.2105L29.9302 18.7241C29.8525 18.4175 29.6748 18.1456 29.4251 17.9514C29.1755 17.7572 28.8682 17.6519 28.5519 17.6521H26.9297C26.7681 17.6521 26.6131 17.7163 26.4988 17.8306C26.3845 17.9449 26.3203 18.0999 26.3203 18.2615C26.3203 18.4231 26.3845 18.5781 26.4988 18.6924C26.6131 18.8066 26.7681 18.8709 26.9297 18.8709H28.5519C28.5971 18.8708 28.641 18.8859 28.6767 18.9136C28.7124 18.9414 28.7378 18.9802 28.7489 19.024L32.1336 32.3485C32.2667 32.874 32.5713 33.3401 32.9992 33.6729C33.4271 34.0058 33.9538 34.1863 34.4959 34.186H45.8336C46.392 34.1839 46.9329 33.9911 47.3667 33.6394C47.8005 33.2878 48.101 32.7984 48.2185 32.2525L49.6495 25.4803C49.6937 25.2732 49.6909 25.0589 49.6413 24.853C49.5916 24.6472 49.4964 24.4551 49.3627 24.2909ZM44.4415 35.0979C44.1201 35.0979 43.8059 35.1932 43.5387 35.3717C43.2715 35.5503 43.0632 35.8041 42.9402 36.101C42.8172 36.3979 42.785 36.7247 42.8477 37.0399C42.9104 37.3551 43.0652 37.6446 43.2925 37.8719C43.5197 38.0992 43.8093 38.2539 44.1245 38.3166C44.4397 38.3793 44.7664 38.3472 45.0634 38.2242C45.3603 38.1012 45.6141 37.8929 45.7926 37.6257C45.9712 37.3584 46.0665 37.0443 46.0665 36.7229C46.066 36.292 45.8947 35.879 45.59 35.5743C45.2854 35.2697 44.8723 35.0983 44.4415 35.0979ZM44.4415 37.1291C44.3612 37.1291 44.2826 37.1053 44.2158 37.0606C44.149 37.016 44.0969 36.9526 44.0662 36.8783C44.0354 36.8041 44.0274 36.7224 44.0431 36.6436C44.0587 36.5648 44.0974 36.4924 44.1542 36.4356C44.2111 36.3788 44.2834 36.3401 44.3622 36.3244C44.441 36.3087 44.5227 36.3168 44.597 36.3475C44.6712 36.3783 44.7346 36.4303 44.7793 36.4972C44.8239 36.564 44.8477 36.6425 44.8477 36.7229C44.8476 36.8306 44.8048 36.9338 44.7286 37.01C44.6525 37.0861 44.5492 37.129 44.4415 37.1291ZM35.4119 35.0979C35.0905 35.0979 34.7764 35.1932 34.5091 35.3717C34.2419 35.5503 34.0336 35.8041 33.9106 36.101C33.7876 36.3979 33.7555 36.7247 33.8182 37.0399C33.8809 37.3551 34.0356 37.6446 34.2629 37.8719C34.4902 38.0992 34.7797 38.2539 35.0949 38.3166C35.4101 38.3793 35.7369 38.3472 36.0338 38.2242C36.3307 38.1012 36.5845 37.8929 36.7631 37.6257C36.9416 37.3584 37.0369 37.0443 37.0369 36.7229C37.0364 36.292 36.8651 35.879 36.5604 35.5744C36.2558 35.2697 35.8428 35.0984 35.4119 35.0979ZM35.4119 37.1291C35.3316 37.1291 35.2531 37.1053 35.1862 37.0606C35.1194 37.016 35.0674 36.9526 35.0366 36.8783C35.0059 36.8041 34.9978 36.7224 35.0135 36.6436C35.0292 36.5648 35.0679 36.4924 35.1247 36.4356C35.1815 36.3788 35.2539 36.3401 35.3327 36.3244C35.4115 36.3087 35.4932 36.3168 35.5674 36.3475C35.6416 36.3783 35.7051 36.4303 35.7497 36.4972C35.7944 36.564 35.8182 36.6425 35.8182 36.7229C35.8181 36.8306 35.7752 36.9338 35.6991 37.01C35.6229 37.0861 35.5196 37.129 35.4119 37.1291Z" fill="#6A6A6A"/>
<path d="M38.2732 18.017L35.91 20.3802C35.8024 20.4917 35.7428 20.6409 35.7442 20.7958C35.7455 20.9507 35.8076 21.0989 35.9172 21.2084C36.0267 21.318 36.1749 21.3801 36.3298 21.3814C36.4847 21.3828 36.6339 21.3232 36.7454 21.2156L38.1001 19.861L38.1001 27.8875C38.1001 28.0442 38.1623 28.1944 38.2731 28.3052C38.3839 28.416 38.5342 28.4783 38.6909 28.4783C38.8476 28.4783 38.9978 28.416 39.1086 28.3052C39.2194 28.1944 39.2817 28.0442 39.2817 27.8875L39.2817 18.4347C39.2816 18.3179 39.247 18.2037 39.1821 18.1066C39.1171 18.0094 39.0249 17.9337 38.9169 17.889C38.809 17.8443 38.6902 17.8326 38.5756 17.8554C38.4611 17.8782 38.3558 17.9344 38.2732 18.017Z" fill="#2C6A3F"/>
<path d="M40.4629 20.7979L40.4629 30.2506C40.4629 30.3675 40.4976 30.4817 40.5625 30.5788C40.6274 30.6759 40.7197 30.7516 40.8276 30.7963C40.9356 30.841 41.0543 30.8527 41.1689 30.83C41.2835 30.8072 41.3888 30.7509 41.4714 30.6683L43.8346 28.3051C43.9422 28.1937 44.0017 28.0445 44.0004 27.8896C43.999 27.7347 43.9369 27.5865 43.8274 27.477C43.7178 27.3674 43.5696 27.3053 43.4147 27.3039C43.2598 27.3026 43.1106 27.3621 42.9992 27.4698L41.6445 28.8244L41.6445 20.7979C41.6445 20.6412 41.5822 20.4909 41.4714 20.3801C41.3606 20.2693 41.2104 20.2071 41.0537 20.2071C40.897 20.2071 40.7467 20.2693 40.6359 20.3801C40.5251 20.4909 40.4629 20.6412 40.4629 20.7979Z" fill="#2C6A3F"/>
<path d="M20.6106 73.676C20.7386 73.956 20.8026 74.292 20.8026 74.684C20.8026 75.108 20.7386 75.452 20.6106 75.716C20.4186 76.148 20.0906 76.472 19.6266 76.688C19.1626 76.896 18.5866 77 17.8986 77H15.0066V68.528H17.8746C18.4826 68.528 18.9946 68.632 19.4106 68.84C19.8346 69.04 20.1346 69.336 20.3106 69.728C20.4386 69.992 20.5026 70.3 20.5026 70.652C20.5026 71.02 20.4386 71.336 20.3106 71.6C20.0946 72.088 19.6826 72.416 19.0746 72.584C19.8346 72.752 20.3466 73.116 20.6106 73.676ZM16.0146 72.248H17.5986C18.0306 72.248 18.3906 72.184 18.6786 72.056C18.9746 71.92 19.1826 71.72 19.3026 71.456C19.3986 71.248 19.4466 71.012 19.4466 70.748C19.4466 70.516 19.4026 70.3 19.3146 70.1C19.0826 69.588 18.4906 69.332 17.5386 69.332H16.0146V72.248ZM19.5906 75.368C19.6786 75.168 19.7226 74.924 19.7226 74.636C19.7226 74.356 19.6746 74.116 19.5786 73.916C19.4426 73.612 19.2146 73.396 18.8946 73.268C18.5746 73.132 18.1626 73.064 17.6586 73.064H16.0146V76.196H17.5986C18.6786 76.196 19.3426 75.92 19.5906 75.368ZM27.4602 71.168V77H26.5002V76.196C26.0922 76.828 25.4482 77.144 24.5682 77.144C23.8402 77.144 23.2842 76.94 22.9002 76.532C22.5162 76.116 22.3242 75.504 22.3242 74.696V71.168H23.2842V74.516C23.2842 75.132 23.4082 75.584 23.6562 75.872C23.9122 76.16 24.2962 76.304 24.8082 76.304C25.3522 76.304 25.7682 76.148 26.0562 75.836C26.3522 75.524 26.5002 75.076 26.5002 74.492V71.168H27.4602ZM34.4806 71.168L30.8806 79.424H29.8726L30.9526 76.94L28.6126 71.168H29.6806L31.4926 75.896L33.4366 71.168H34.4806ZM39.1352 68.336H40.1312L36.3392 77.6H35.3432L39.1352 68.336ZM44.6648 77.192C43.8728 77.192 43.2248 77.06 42.7208 76.796C42.2168 76.524 41.8568 76.148 41.6408 75.668C41.4568 75.268 41.3648 74.784 41.3648 74.216H42.4568C42.4568 74.648 42.5208 75.016 42.6488 75.32C42.8008 75.648 43.0448 75.9 43.3808 76.076C43.7248 76.244 44.1648 76.328 44.7008 76.328C45.2048 76.328 45.6288 76.248 45.9728 76.088C46.3248 75.928 46.5688 75.704 46.7048 75.416C46.7928 75.232 46.8368 75.024 46.8368 74.792C46.8368 74.584 46.7968 74.388 46.7168 74.204C46.6128 73.98 46.4448 73.8 46.2128 73.664C45.9808 73.52 45.7328 73.412 45.4688 73.34C45.2048 73.26 44.7928 73.152 44.2328 73.016C43.5528 72.848 43.0088 72.66 42.6008 72.452C42.1928 72.236 41.9048 71.94 41.7368 71.564C41.6168 71.284 41.5568 70.992 41.5568 70.688C41.5568 70.352 41.6248 70.036 41.7608 69.74C41.9528 69.308 42.2928 68.968 42.7808 68.72C43.2768 68.464 43.8648 68.336 44.5448 68.336C45.2408 68.336 45.8208 68.464 46.2848 68.72C46.7488 68.968 47.0888 69.328 47.3048 69.8C47.4728 70.184 47.5568 70.64 47.5568 71.168H46.5128C46.5128 70.752 46.4528 70.408 46.3328 70.136C46.1968 69.824 45.9728 69.588 45.6608 69.428C45.3568 69.26 44.9768 69.176 44.5208 69.176C44.0648 69.176 43.6768 69.256 43.3568 69.416C43.0448 69.568 42.8328 69.78 42.7208 70.052C42.6488 70.204 42.6128 70.384 42.6128 70.592C42.6128 70.808 42.6448 70.984 42.7088 71.12C42.7888 71.312 42.9248 71.472 43.1168 71.6C43.3168 71.72 43.5408 71.82 43.7888 71.9C44.0368 71.972 44.3728 72.06 44.7968 72.164L45.1328 72.248C45.6048 72.368 46.0008 72.488 46.3208 72.608C46.6488 72.728 46.9368 72.88 47.1848 73.064C47.4328 73.248 47.6208 73.48 47.7488 73.76C47.8688 74.024 47.9288 74.34 47.9288 74.708C47.9288 75.092 47.8568 75.428 47.7128 75.716C47.5048 76.188 47.1368 76.552 46.6088 76.808C46.0808 77.064 45.4328 77.192 44.6648 77.192ZM53.4968 75.908C53.6248 75.788 53.7288 75.648 53.8088 75.488C53.8888 75.32 53.9368 75.14 53.9528 74.948H54.9128C54.8648 75.556 54.6328 76.056 54.2168 76.448C53.9608 76.672 53.6568 76.844 53.3048 76.964C52.9528 77.076 52.5608 77.132 52.1288 77.132C51.4728 77.132 50.9128 77 50.4488 76.736C49.9848 76.472 49.6488 76.096 49.4408 75.608C49.2408 75.2 49.1408 74.692 49.1408 74.084C49.1408 73.772 49.1648 73.492 49.2128 73.244C49.2608 72.996 49.3368 72.764 49.4408 72.548C49.6568 72.068 49.9888 71.696 50.4368 71.432C50.8848 71.16 51.4248 71.024 52.0568 71.024C52.6888 71.024 53.2248 71.156 53.6648 71.42C54.1128 71.684 54.4408 72.048 54.6488 72.512C54.7608 72.768 54.8368 73.036 54.8768 73.316C54.9248 73.596 54.9488 73.924 54.9488 74.3H50.1128C50.1368 74.724 50.2088 75.072 50.3288 75.344C50.4728 75.664 50.6968 75.912 51.0008 76.088C51.3048 76.256 51.6768 76.34 52.1168 76.34C52.4048 76.34 52.6648 76.304 52.8968 76.232C53.1368 76.16 53.3368 76.052 53.4968 75.908ZM52.0688 71.828C51.2048 71.828 50.6248 72.164 50.3288 72.836C50.2328 73.06 50.1688 73.304 50.1368 73.568H53.9648C53.9328 73.272 53.8688 73.008 53.7728 72.776C53.6368 72.464 53.4248 72.228 53.1368 72.068C52.8488 71.908 52.4928 71.828 52.0688 71.828ZM56.399 68.528H57.359V77H56.399V68.528ZM59.1262 68.528H60.0862V77H59.1262V68.528Z" fill="#1D1D1D"/>
<defs>
<filter id="filter0_i_9229_13807" x="0" y="0" width="76" height="56" filterUnits="userSpaceOnUse" color-interpolation-filters="sRGB">
<feFlood flood-opacity="0" result="BackgroundImageFix"/>
<feBlend mode="normal" in="SourceGraphic" in2="BackgroundImageFix" result="shape"/>
<feColorMatrix in="SourceAlpha" type="matrix" values="0 0 0 0 0 0 0 0 0 0 0 0 0 0 0 0 0 0 127 0" result="hardAlpha"/>
<feOffset dx="1" dy="1"/>
<feComposite in2="hardAlpha" operator="arithmetic" k2="-1" k3="1"/>
<feColorMatrix type="matrix" values="0 0 0 0 1 0 0 0 0 1 0 0 0 0 1 0 0 0 0.12 0"/>
<feBlend mode="normal" in2="shape" result="effect1_innerShadow_9229_13807"/>
</filter>
</defs>
</svg>
