<svg width="76" height="81" viewBox="0 0 76 81" fill="none" xmlns="http://www.w3.org/2000/svg">
<g filter="url(#filter0_i_7928_7267)">
<rect width="76" height="56" rx="28" fill="#E2F1E3"/>
</g>
<path d="M35.292 29.8956C35.292 30.9464 36.1045 31.7914 37.1012 31.7914H39.1378C40.0045 31.7914 40.7087 31.0548 40.7087 30.1339C40.7087 29.1481 40.2753 28.7906 39.6362 28.5631L36.3753 27.4256C35.7362 27.1981 35.3028 26.8514 35.3028 25.8548C35.3028 24.9448 36.007 24.1973 36.8736 24.1973H38.9103C39.907 24.1973 40.7195 25.0423 40.7195 26.0931" stroke="#6A6A6A" stroke-width="1.5" stroke-linecap="round" stroke-linejoin="round"/>
<path d="M38 23.125V32.875" stroke="#6A6A6A" stroke-width="1.5" stroke-linecap="round" stroke-linejoin="round"/>
<path d="M48.8337 28.0003C48.8337 33.9803 43.9803 38.8337 38.0003 38.8337C32.0203 38.8337 27.167 33.9803 27.167 28.0003C27.167 22.0203 32.0203 17.167 38.0003 17.167" stroke="#6A6A6A" stroke-width="1.5" stroke-linecap="round" stroke-linejoin="round"/>
<path d="M48.8333 21.5003V17.167H44.5" stroke="#2C6A3F" stroke-width="1.5" stroke-linecap="round" stroke-linejoin="round"/>
<path d="M43.417 22.5837L48.8337 17.167" stroke="#2C6A3F" stroke-width="1.5" stroke-linecap="round" stroke-linejoin="round"/>
<path d="M28.0464 76.192C27.2544 76.192 26.6064 76.06 26.1024 75.796C25.5984 75.524 25.2384 75.148 25.0224 74.668C24.8384 74.268 24.7464 73.784 24.7464 73.216H25.8384C25.8384 73.648 25.9024 74.016 26.0304 74.32C26.1824 74.648 26.4264 74.9 26.7624 75.076C27.1064 75.244 27.5464 75.328 28.0824 75.328C28.5864 75.328 29.0104 75.248 29.3544 75.088C29.7064 74.928 29.9504 74.704 30.0864 74.416C30.1744 74.232 30.2184 74.024 30.2184 73.792C30.2184 73.584 30.1784 73.388 30.0984 73.204C29.9944 72.98 29.8264 72.8 29.5944 72.664C29.3624 72.52 29.1144 72.412 28.8504 72.34C28.5864 72.26 28.1744 72.152 27.6144 72.016C26.9344 71.848 26.3904 71.66 25.9824 71.452C25.5744 71.236 25.2864 70.94 25.1184 70.564C24.9984 70.284 24.9384 69.992 24.9384 69.688C24.9384 69.352 25.0064 69.036 25.1424 68.74C25.3344 68.308 25.6744 67.968 26.1624 67.72C26.6584 67.464 27.2464 67.336 27.9264 67.336C28.6224 67.336 29.2024 67.464 29.6664 67.72C30.1304 67.968 30.4704 68.328 30.6864 68.8C30.8544 69.184 30.9384 69.64 30.9384 70.168H29.8944C29.8944 69.752 29.8344 69.408 29.7144 69.136C29.5784 68.824 29.3544 68.588 29.0424 68.428C28.7384 68.26 28.3584 68.176 27.9024 68.176C27.4464 68.176 27.0584 68.256 26.7384 68.416C26.4264 68.568 26.2144 68.78 26.1024 69.052C26.0304 69.204 25.9944 69.384 25.9944 69.592C25.9944 69.808 26.0264 69.984 26.0904 70.12C26.1704 70.312 26.3064 70.472 26.4984 70.6C26.6984 70.72 26.9224 70.82 27.1704 70.9C27.4184 70.972 27.7544 71.06 28.1784 71.164L28.5144 71.248C28.9864 71.368 29.3824 71.488 29.7024 71.608C30.0304 71.728 30.3184 71.88 30.5664 72.064C30.8144 72.248 31.0024 72.48 31.1304 72.76C31.2504 73.024 31.3104 73.34 31.3104 73.708C31.3104 74.092 31.2384 74.428 31.0944 74.716C30.8864 75.188 30.5184 75.552 29.9904 75.808C29.4624 76.064 28.8144 76.192 28.0464 76.192ZM36.8784 74.908C37.0064 74.788 37.1104 74.648 37.1904 74.488C37.2704 74.32 37.3184 74.14 37.3344 73.948H38.2944C38.2464 74.556 38.0144 75.056 37.5984 75.448C37.3424 75.672 37.0384 75.844 36.6864 75.964C36.3344 76.076 35.9424 76.132 35.5104 76.132C34.8544 76.132 34.2944 76 33.8304 75.736C33.3664 75.472 33.0304 75.096 32.8224 74.608C32.6224 74.2 32.5224 73.692 32.5224 73.084C32.5224 72.772 32.5464 72.492 32.5944 72.244C32.6424 71.996 32.7184 71.764 32.8224 71.548C33.0384 71.068 33.3704 70.696 33.8184 70.432C34.2664 70.16 34.8064 70.024 35.4384 70.024C36.0704 70.024 36.6064 70.156 37.0464 70.42C37.4944 70.684 37.8224 71.048 38.0304 71.512C38.1424 71.768 38.2184 72.036 38.2584 72.316C38.3064 72.596 38.3304 72.924 38.3304 73.3H33.4944C33.5184 73.724 33.5904 74.072 33.7104 74.344C33.8544 74.664 34.0784 74.912 34.3824 75.088C34.6864 75.256 35.0584 75.34 35.4984 75.34C35.7864 75.34 36.0464 75.304 36.2784 75.232C36.5184 75.16 36.7184 75.052 36.8784 74.908ZM35.4504 70.828C34.5864 70.828 34.0064 71.164 33.7104 71.836C33.6144 72.06 33.5504 72.304 33.5184 72.568H37.3464C37.3144 72.272 37.2504 72.008 37.1544 71.776C37.0184 71.464 36.8064 71.228 36.5184 71.068C36.2304 70.908 35.8744 70.828 35.4504 70.828ZM42.6726 70.024C43.4006 70.024 43.9526 70.232 44.3286 70.648C44.7126 71.056 44.9046 71.664 44.9046 72.472V76H43.9446V72.652C43.9446 72.036 43.8206 71.584 43.5726 71.296C43.3246 71.008 42.9446 70.864 42.4326 70.864C41.8886 70.864 41.4686 71.02 41.1726 71.332C40.8846 71.644 40.7406 72.096 40.7406 72.688V76H39.7806V70.168H40.7406V70.96C41.1406 70.336 41.7846 70.024 42.6726 70.024ZM52.021 67.528V76H51.073V75.112C50.857 75.448 50.569 75.704 50.209 75.88C49.849 76.048 49.441 76.132 48.985 76.132C48.425 76.132 47.941 76.008 47.533 75.76C47.125 75.504 46.817 75.148 46.609 74.692C46.401 74.228 46.297 73.692 46.297 73.084C46.297 72.476 46.401 71.94 46.609 71.476C46.817 71.012 47.125 70.656 47.533 70.408C47.941 70.152 48.425 70.024 48.985 70.024C49.433 70.024 49.837 70.112 50.197 70.288C50.557 70.456 50.845 70.704 51.061 71.032V67.528H52.021ZM51.061 72.94C51.061 72.5 50.985 72.124 50.833 71.812C50.681 71.5 50.465 71.264 50.185 71.104C49.913 70.944 49.589 70.864 49.213 70.864C48.821 70.864 48.481 70.948 48.193 71.116C47.905 71.284 47.689 71.532 47.545 71.86C47.393 72.188 47.317 72.596 47.317 73.084C47.317 73.556 47.393 73.964 47.545 74.308C47.689 74.628 47.905 74.876 48.193 75.052C48.481 75.22 48.821 75.304 49.213 75.304C49.589 75.304 49.913 75.224 50.185 75.064C50.465 74.904 50.681 74.668 50.833 74.356C50.985 74.044 51.061 73.668 51.061 73.228V72.94Z" fill="#1D1D1D"/>
<defs>
<filter id="filter0_i_7928_7267" x="0" y="0" width="76" height="56" filterUnits="userSpaceOnUse" color-interpolation-filters="sRGB">
<feFlood flood-opacity="0" result="BackgroundImageFix"/>
<feBlend mode="normal" in="SourceGraphic" in2="BackgroundImageFix" result="shape"/>
<feColorMatrix in="SourceAlpha" type="matrix" values="0 0 0 0 0 0 0 0 0 0 0 0 0 0 0 0 0 0 127 0" result="hardAlpha"/>
<feOffset dx="1" dy="1"/>
<feComposite in2="hardAlpha" operator="arithmetic" k2="-1" k3="1"/>
<feColorMatrix type="matrix" values="0 0 0 0 1 0 0 0 0 1 0 0 0 0 1 0 0 0 0.12 0"/>
<feBlend mode="normal" in2="shape" result="effect1_innerShadow_7928_7267"/>
</filter>
</defs>
</svg>
